<svg width="983" height="993" viewBox="0 0 983 993" fill="none" xmlns="http://www.w3.org/2000/svg">
<path d="M491.5 12.3164L972 254.346V738.405L491.5 980.435L11 738.405V254.346L491.5 12.3164Z" stroke="#C9923A" stroke-width="22"/>
<path d="M491.5 133.332L850.985 323.498V669.255L491.5 859.421L132.015 669.255V323.498L491.5 133.332Z" fill="#1A1308"/>
<path d="M491.5 652.983C642.861 652.983 765.563 584.461 765.563 499.935C765.563 415.409 642.861 346.887 491.5 346.887C340.14 346.887 217.438 415.409 217.438 499.935C217.438 584.461 340.14 652.983 491.5 652.983Z" fill="#C9923A"/>
<path d="M491.5 610.272C576.026 610.272 644.548 560.872 644.548 499.935C644.548 438.997 576.026 389.598 491.5 389.598C406.974 389.598 338.452 438.997 338.452 499.935C338.452 560.872 406.974 610.272 491.5 610.272Z" fill="#0D1117"/>
<path d="M491.5 567.562C528.849 567.562 559.126 537.285 559.126 499.936C559.126 462.588 528.849 432.311 491.5 432.311C454.151 432.311 423.874 462.588 423.874 499.936C423.874 537.285 454.151 567.562 491.5 567.562Z" fill="#C9923A"/>
<path opacity="0.8" d="M541.33 460.785C555.09 460.785 566.245 454.41 566.245 446.548C566.245 438.685 555.09 432.311 541.33 432.311C527.57 432.311 516.415 438.685 516.415 446.548C516.415 454.41 527.57 460.785 541.33 460.785Z" fill="#FCE9C0"/>
</svg>
